<?xml version="1.0" encoding="UTF-8"?>
<svg id="Layer_1" xmlns="http://www.w3.org/2000/svg" version="1.1" viewBox="0 0 25.8 25.5">
  <!-- Generator: Adobe Illustrator 29.1.0, SVG Export Plug-In . SVG Version: 2.1.0 Build 142)  -->
  <defs>
    <style>
      .st0 {
        fill: #fff;
      }
    </style>
  </defs>
  <path class="st0" d="M9.4,25c9.5,2.5,18.2-6.1,15.6-15.6-1.1-4.3-4.6-7.8-8.9-8.9C6.6-2.1-2.1,6.6.4,16c1.1,4.3,4.6,7.8,8.9,9h.1ZM13.7,23.6c-6.8.6-12.5-5.1-11.8-11.9C2.3,6.5,6.6,2.3,11.8,1.9c6.8-.6,12.4,5,11.8,11.8-.4,5.2-4.7,9.4-9.9,9.9Z"/>
  <path class="st0" d="M6.9,19.1h11.6c.5,0,.7-.3.7-.7,0-1.4-2.1-5-6.5-5s-6.5,3.6-6.5,5,.2.7.6.7h0ZM12.7,12.4c1.8,0,3.2-1.5,3.2-3.5s-1.4-3.5-3.2-3.5-3.2,1.6-3.2,3.5,1.4,3.5,3.2,3.5Z"/>
</svg>