<?xml version="1.0" encoding="UTF-8"?>
<svg id="Layer_1" xmlns="http://www.w3.org/2000/svg" version="1.1" viewBox="0 0 27.5 25.7">
  <!-- Generator: Adobe Illustrator 29.1.0, SVG Export Plug-In . SVG Version: 2.1.0 Build 142)  -->
  <defs>
    <style>
      .st0 {
        fill: #fff;
      }
    </style>
  </defs>
  <path class="st0" d="M7.4,25.7c.5,0,.9-.3,1.5-.9l4.4-3.9h8.6c3.5,0,5.5-2,5.5-5.5V5.5c0-3.5-2-5.5-5.5-5.5H5.5C2,0,0,2,0,5.5v10c0,3.5,2,5.5,5.5,5.5h.7v3.4c0,.8.4,1.4,1.2,1.4h0ZM7.8,23.7v-3.7c0-.6-.2-.8-.8-.8h-1.5c-2.5,0-3.8-1.4-3.8-3.8V5.5c0-2.4,1.3-3.8,3.8-3.8h16.5c2.5,0,3.8,1.3,3.8,3.8v9.9c0,2.4-1.3,3.8-3.8,3.8h-8.7c-.6,0-.9.1-1.4.5l-4.1,4h0Z"/>
  <path class="st0" d="M18.6,15c.3.2.6.1.8-.1.9-1.2,1.4-2.7,1.4-4.4s-.5-3.1-1.4-4.4c-.2-.3-.5-.3-.8-.2-.3.2-.3.6-.1.8.7,1,1.1,2.3,1.1,3.7s-.4,2.8-1.1,3.7c-.2.3-.2.6.1.8h0Z"/>
  <path class="st0" d="M16.3,13.3c.2.2.6.1.8-.1.5-.7.8-1.7.8-2.7s-.3-2-.8-2.7c-.2-.3-.6-.3-.8,0-.3.2-.3.6-.1.9.4.5.6,1.2.6,2s-.2,1.5-.6,2c-.2.3-.1.6.1.8h0Z"/>
  <path class="st0" d="M13.4,16.2c.4,0,.6-.3.6-.7V5.5c0-.4-.3-.7-.6-.7s-.5,0-.8.4l-2.8,2.7h-2.1c-.8,0-1.3.5-1.3,1.3v2.5c0,.8.5,1.3,1.3,1.3h2.1l2.8,2.7c.2.2.5.4.8.4h0Z"/>
</svg>