<?xml version="1.0" encoding="UTF-8"?>
<svg id="Layer_1" xmlns="http://www.w3.org/2000/svg" version="1.1" viewBox="0 0 25.8 25.5">
  <!-- Generator: Adobe Illustrator 29.1.0, SVG Export Plug-In . SVG Version: 2.1.0 Build 142)  -->
  <defs>
    <style>
      .st0 {
        fill-opacity: 0;
      }

      .st0, .st1 {
        fill: #fff;
      }

      .st1 {
        fill-opacity: .9;
      }
    </style>
  </defs>
  <rect class="st0" x="1.8" y=".8" width="22.2" height="23.9"/>
  <path class="st1" d="M4,9.3h17.5c1.4,0,2.2-.8,2.2-2.2v-3.8c0-1.4-.8-2.2-2.2-2.2H4c-1.4,0-2.2.8-2.2,2.2v3.8c0,1.4.8,2.2,2.2,2.2ZM4,8c-.6,0-.9-.4-.9-.9v-3.6c0-.6.4-.9.9-.9h17.4c.6,0,.9.4.9.9v3.6c0,.6-.4.9-.9.9H4ZM12.1,11.6h1.3v-2.9h-1.3v2.9ZM4,19h17.5c1.4,0,2.2-.8,2.2-2.2v-3.8c0-1.4-.8-2.2-2.2-2.2H4c-1.4,0-2.2.8-2.2,2.2v3.8c0,1.4.8,2.2,2.2,2.2ZM4,17.7c-.6,0-.9-.4-.9-.9v-3.6c0-.6.4-.9.9-.9h17.4c.6,0,.9.4.9.9v3.6c0,.6-.4.9-.9.9H4ZM12.1,21.1h1.3v-3h-1.3v3ZM12.2,24.4c.3.4.8.4,1.1,0l2.2-2.8c.4-.5.2-1.2-.5-1.2h-4.6c-.7,0-.9.7-.5,1.2l2.3,2.8Z"/>
</svg>