<?xml version="1.0" encoding="UTF-8"?>
<svg id="Layer_1" xmlns="http://www.w3.org/2000/svg" version="1.1" viewBox="0 0 25.8 25.5">
  <!-- Generator: Adobe Illustrator 29.1.0, SVG Export Plug-In . SVG Version: 2.1.0 Build 142)  -->
  <defs>
    <style>
      .st0 {
        fill-opacity: 0;
      }

      .st0, .st1 {
        fill: #fff;
      }

      .st1 {
        fill-opacity: .9;
      }
    </style>
  </defs>
  <rect class="st0" x="-.3" y="-.6" width="27.1" height="26.6"/>
  <path class="st1" d="M19.7,3.2l-1.6,1.6H6.6c-1.2,0-1.9.7-1.9,1.9v12.9c0,1.3.7,1.9,1.9,1.9h13c1.2,0,1.9-.7,1.9-1.9v-11.4l1.6-1.6v13.1c0,2.3-1.2,3.4-3.4,3.4H6.6c-2.3,0-3.4-1.1-3.4-3.4V6.6c0-2.3,1.2-3.4,3.4-3.4h13.1Z"/>
  <path class="st1" d="M10.9,15.6l2-.9,10.6-10.6-1.4-1.4-10.6,10.6-1,2c0,.2.1.4.3.3h0ZM24.4,3.3l.8-.8c.4-.4.4-.9,0-1.2l-.2-.2c-.3-.3-.8-.3-1.2,0l-.8.8s1.4,1.4,1.4,1.4Z"/>
</svg>