<?xml version="1.0" encoding="UTF-8"?>
<svg id="Layer_1" xmlns="http://www.w3.org/2000/svg" version="1.1" viewBox="0 0 25.8 25.5">
  <!-- Generator: Adobe Illustrator 29.1.0, SVG Export Plug-In . SVG Version: 2.1.0 Build 142)  -->
  <defs>
    <style>
      .st0 {
        fill-opacity: 0;
      }

      .st0, .st1 {
        fill: #fff;
      }

      .st1 {
        fill-opacity: .9;
      }
    </style>
  </defs>
  <rect class="st0" x="1" y=".2" width="24.7" height="24.3"/>
  <path class="st1" d="M1.9,8.1c.6,0,.9-.3.9-.9v-3.1c0-1.4.7-2.1,2.1-2.1h3.1c.6,0,.9-.3.9-.9s-.3-.9-.9-.9h-3.2c-2.5,0-3.8,1.3-3.8,3.8v3.2c0,.6.3.9.9.9ZM24.4,8.1c.6,0,.9-.3.9-.9v-3.2c0-2.5-1.3-3.8-3.8-3.8h-3.2c-.6,0-.9.3-.9.9s.3.9.9.9h3.1c1.3,0,2.1.7,2.1,2.1v3.1c0,.6.3.9.9.9ZM4.8,24.6h3.2c.6,0,.9-.3.9-.9s-.3-.9-.9-.9h-3.1c-1.4,0-2.1-.7-2.1-2.1v-3.1c0-.6-.3-.9-.9-.9s-.9.3-.9.9v3.2c0,2.5,1.3,3.8,3.8,3.8ZM18.3,24.6h3.2c2.5,0,3.8-1.3,3.8-3.8v-3.2c0-.6-.3-.9-.9-.9s-.9.3-.9.9v3.1c0,1.4-.8,2.1-2.1,2.1h-3.1c-.6,0-.9.3-.9.9s.3.9.9.9Z"/>
  <path class="st1" d="M7.5,18.1h11.4c1.3,0,1.9-.6,1.9-1.9v-6.7c0-1.3-.7-1.9-1.9-1.9h-1.7c-.5,0-.6,0-1-.4l-.5-.6c-.3-.4-.6-.5-1.3-.5h-2.5c-.6,0-.9.2-1.3.5l-.5.6c-.3.3-.4.4-1,.4h-1.6c-1.3,0-1.9.6-1.9,1.9v6.7c0,1.3.7,1.9,1.9,1.9ZM13.2,16.6c-2.1,0-3.8-1.7-3.8-3.8s1.7-3.8,3.8-3.8,3.8,1.7,3.8,3.8-1.7,3.8-3.8,3.8ZM13.2,15.6c1.5,0,2.8-1.2,2.8-2.8s-1.3-2.8-2.8-2.8-2.8,1.3-2.8,2.8,1.3,2.8,2.8,2.8ZM18.2,10.9c-.4,0-.8-.4-.8-.8s.4-.8.8-.8.8.4.8.8-.4.8-.8.8Z"/>
</svg>