<?xml version="1.0" encoding="UTF-8"?>
<svg id="Layer_1" xmlns="http://www.w3.org/2000/svg" version="1.1" viewBox="0 0 1280 499">
  <!-- Generator: Adobe Illustrator 29.1.0, SVG Export Plug-In . SVG Version: 2.1.0 Build 142)  -->
  <defs>
    <style>
      .st0 {
        fill: #fff;
      }
    </style>
  </defs>
  <g id="KfQA4J.tif">
    <g>
      <path class="st0" d="M1249.85,484.83c-.49-.4-1.05-.41-1.33-1.33.32.46,1.14.86,1.33,1.33Z"/>
      <path class="st0" d="M856.51,467.52c-.25.3-1.13,3.25-2.67,5.32-.16-2.2.14-4.46,0-6.66l2.67,1.33Z"/>
      <path class="st0" d="M344.5,458.2c-.56,12-1.12,7.69-8,9.32,1.13-3.55,3.62-5.83,4-9.32,1.33.04,2.67-.06,4,0Z"/>
      <path class="st0" d="M1188.51,452.88c1.33,3.9,3.34,4.49,4,6,.21.49-2.36-.59-2.66,4.65-2.29-2.74-3.68-4.85-5.33-7.99.59-.32,1.52-3.26,4-2.66Z"/>
      <path class="st0" d="M460.5,450.22c-.86.87-.45,1.67-2.67,1.33,1.24-1.32,2.2-1,2.67-1.33Z"/>
      <path class="st0" d="M460.5,450.22c.48-.34.87-1.1,1.33-1.33-.37.55-.89.88-1.33,1.33Z"/>
      <path class="st0" d="M528.5,436.91c.69,4.04,1.79,2.09,1.33,9.32-2.33-2.73-2.92-5.59-5.33-7.99.32-.01,2.5-2.05,4-1.33Z"/>
      <path class="st0" d="M627.17,374.35c.29,10.76,2.04,21.24,2.68,31.95,3.82-1.32,13-6.07,16.36-6.28.78-.05,8.56.74,8.88,1.06.79.79-1.2,4.34,1.39,3.88,2.89-11.03,7.96-21.93,15.22-30.77.49-.6,1.53-4.89,3.46-2.49,1.33,1.65-13.14,33.97-9.03,40.98.27.46,8.25,6.17,9.02,5.59-.49-4.62,9.28-15.69,9.33-17.93.05-2.34-4.34-9.82-4.99-13.67-.31-1.84-.72-10.62-.33-11,.57-.56,7.2.66,7.95-.05.55-.53,2.17-11.96,3.12-14.86.46-1.41.33-4.01,2.27-3.71v19.3c0,1.06,16.88,6.07,18.67,9.98v-64.56c-5.54-2.72-11.88-3.09-18.24-5.75-13.46-5.64-32.43-25.74-32.43-40.84v-43.26l31.36,17.33c10.12-5.5,16.92-15.11,25.4-22.61,4.38,2.47,19.98,22.62,23.89,22.6l27.36-17.32v44.59c0,2.08-5.01,14.91-6.43,17.55-7.54,14.1-25.07,26.59-41.58,25.73-.29,1.03,1.33,1.6,1.33,1.98v32.61c7.51-6.23,15.42-11.62,25.32-13.31,1.98,9.65,2.7,21.35-2.37,30.23-2.02,3.53-5.13,5.06-7.01,8.97-1.75,3.64-8.46,29.52-7.34,31.34.92,1.49,6.84,3.99,8.09,6.66l11.04-18.23c.77-13.21,1.91-28.02,6.01-40.61.45-1.4.34-4.02,2.26-3.7,1.08,10.66-1.37,23.7-.1,34.03.31,2.54,2.69,1.81,2.64,2.47-.78,10.23,1.9,15.82,1.61,24.06-.23,6.44-5.03,14.16-2.81,21.95-6.34-6.18-10.89-13.43-9.33-22.62-4.72-1.17-2.39,7.54-4.23,9.08-.8.67-3.62.15-5.1.84-1.69.78-4.13,3.16-4.86,3.27-2.95.44-3.88-5.87-7.12-6.54.06,3.43-.42,18.17,1.33,19.97,3.96,4.07,2.67-12.77,6.63-9.31.28.24,1.74,4.69,3.49,6.52,2.44,2.56,6.09,3.55,8.53,6.12-3.35.94-14.01-.34-10.05,6.03,3.15,5.07,13.54-.65,18.03-1.43l-1.32-2.6c1.91.53,4.1-1.24,5.34-1.34l-2.67,7.99c-5.36.34-12.67-1.12-16.08,4.57-5.72,9.54,6.4,12.81,12.76,6.11l-.67,9.29c7.6,2.12,7.73-7.72,7.99-13.31l-5.3,2.01,2.64-8.67c5.67-.36,8.76,1.15,8-6.66,7.53-.05,16.53-.88,22-6.66,7.78-8.2,1.62-17.01-8.65-11.98-.59-9.13,8.42-18.17-.01-25.28l6.66,1.33c.94-5.9,3.76-12.92,6.44-18.21,1.95-3.85,10.11-14.03,10.68-16.05,1.09-3.84-3.59-17.84-2.45-18.98,6.25-1.52,13.85,1.87,19.39,1.48,3.21-.23.87-3.1,3.26-2.81.04,1.45-.47,3.03.84,4.13,3.07,2.57,13,4.93,16.49,9.18v-35.94c2.67,1.04,7.72.73,10.68,0v13.31c6.78-6,14.44-10.96,23.31-13.34,5.14,12.12,2.02,34.18-12.6,38-2.87.75-10.71.09-10.71.63v34.61l8.26-17.71c1.02-1.01,7-12.55,9.06-10.24-.96,7.41-12.03,37.26-9.04,42.32.18.31,4.9,3.72,5.73,4.27,1.47.98.87,2.09,2.62-.03,9.3-11.29,7.01-27.62,9.09-41.51.67-4.49,1.81-9.96,2.94-14.37.51-1.98,1.41-7.29,3.33-7.97.64,5.5-1.34,36.81,1.37,38.6l2.63-1.34c-5.57,11.77,2.27,25.09,4.03,37.27l4.65-11.98,4.68-19.96c1.35-.39,2.65,5.66,2.65,5.98v23.29c2.69.33,2.19.27,3-1.66,2.39-5.71,5.8-17.66-.31-21.65,1.56-.64,5.33,1.68,6.57.62,3.08-2.61-1.3-22.95.07-27.9,2.94-1.76,10.82,3.3,11.87,2.58.47-.33,3.29-7.03,5.46-7.9.67,2.65,5.17,4.95,8,3.99-.57,9.23.41,18.7.01,27.95l2.01-1.31c-.89-9.62,4.64-24.63,3.31-33.3l5.32-13.3c.09,5.75-.07,11.55.01,17.3.07,4.85-.91,13.79,0,17.76.26,1.13,3.98.03,1.33,6.2,6.6-1.81,13.02-3.43,19.99-2.65.79,1.86-1.33,3.98-1.33,4.65v35.27l6.74-23.36c.28-3.11-2.06-4.67-4.05-6.6,1.57-.64,5.3,1.69,6.56.6.5-.43,3.05-9.84,4.27-12.38,3.21-6.7,7.23-12.85,10.5-19.48,2.24-.1,2.91-.7,2.6,1.92-.81,6.81-11.98,32.61-9.01,37.74,1.22,2.11,7.65,3.65,10.4,2.28.96-.48,7.7-11.5,8.29-13.03,1.01-2.64,2.87-24.64,1.75-26.31-.72-1.08-8.63-3.21-11.3-4.69-12.66-7.01-17.71-18.65-18.75-32.52-.17-2.19.05-4.45,0-6.66-.14-6.19.09-12.44.01-18.63.74-1.01,18.5,12.04,22.03,11.95,4.48-.11,15.73-15.76,19.79-14.54,1.83.55,10.43,14.44,14.81,14.55,3.95.1,15.02-10.13,19.36-11.96v32.61c0,.74-2.16,2.87-1.31,4.61,7.34,2.15,13.75,6.46,19.96,10.69v-43.93c3.38,1.2,9.78.75,13.35,0v18.63s8.7-9.28,8.7-9.28c3.09-3.05,20.22-11.72,23.19-9.17.61.53-.19,3.43.11,3.81-5.64,6.32-1.69,9.67,2.67,14.63-5.22-.08-9.88,2.78-7.84,8.52.66,1.87,3.72,1.71,3.94,3.01.27,1.54-1.32,4.05-1.44,5.79-7.45,9.78-16.98,13.44-29.33,11.98v59.23c0,.87,1.23,5.88,3.99,4.66l9.33-30.61c-.05,10.91.94,21.71,1.35,32.62.06,1.61-1,4.95,1.32,4.64-1.65-6.76,5.53-19.67,5.29-24.68-.16-3.32-4.36-4.41-5.27-7.25,1.96-.56,4.36,1.44,5.87,1.11,2.72-.6,11.28-29.04,18.13-31.74h1.33c-1.9,2.77-9.63,32.85-9.46,36.64.12,2.76,5.58,8.08,7.57,8.55,1.89.44,7.99-10.1,8.31-11.56.51-2.36-5.12-20.4-2.43-22.98.51-.49,6.15.51,6.68.01.41-.38-.36-4.08,0-5.33,1.72-6.15,4.31-12.24,5.35-18.63,2.32-.32,1.25,3.02,1.32,4.63.15,3.77-.11,7.57,0,11.33.08,2.72-.37,13.45,1.44,14.55,4.85,2.96,4.22-4.25,3.89-7.9h6.67c-.59,9.6-.11,19.7.66,29.28,4-1.36,4.18-11.83,7.33-9.29.2.16-.3,2.59.58,2.58.51,0,9.39-2.58,9.79-2.91.91-.76,7.6-17.66,9.91-21.39,1.44-2.32,3.05-6.52,6.39-6.25.53,7.56-6.94,18.8-5.32,25.7.26,1.1,2.69.42,2.8,2.85.35,7.56-7.7,13.13,3.84,15.36.73-5.89,7.8-11.76,9.08-16.91,3.05-12.28,1.63-25.84,6.01-39.27.45-1.4.34-4.02,2.26-3.7-1.37,11.8,1.19,22.86,2.18,34.16.2,2.26-1.09,4.63-.74,7.55,1.25,10.21,4.4,20.17,6.58,30.17,3.23-2.33,8.64-20.32,8.08-23.05-.19-.91-3.99-2.38-5.45-4.2-1.08-1.34-7.39-10.91-7.68-11.56-.31-.72.29-13.54-.29-15.77,11.44.7,23.26,2.64,32,10.65v-66.55c-20,.94-41.9-16.63-48.08-35.2-.49-1.47-2.59-8.72-2.59-9.39v-43.26l31.35,17.32c9.61-6.2,17.23-14.72,25.35-22.62l1.94-.02c1.19,4.17,19.73,22.65,22,22.64l27.36-17.32v44.59c0,2.08-5.01,14.91-6.43,17.55-7.29,13.64-24.18,26.02-40.24,25.71v34.61c7.19-6.63,15.61-11.42,25.32-13.31,2.07,9.36,2.23,18.45-1.05,27.56-.89,2.47-3.42,4.7-3.94,6.71-.87,3.33.54,19.04,1.11,23.42,1.39,10.63,4.65,20.98,6.58,31.49l2.64-2.65v73.2s-1294.68,0-1294.68,0v-83.86l2.65,14.63c-.39-6.35,3.92-13.43,4.09-19.38.12-4.4-2.22-4.96-2.73-8.56.67-.67,4.59,1.87,5.31,1.34,1.68-1.25,9.91-31.7,18.68-33.29,0,.44.05.9,0,1.33-.54,4.93-5.15,14.72-6.57,20.73-.94,3.97-4.18,16-2.47,18.93.23.39,6.64,5.41,7.06,5.59,4.67,1.98-.64-12.06.64-13.3.69-.66,8.76,1.95,10.39-3.61,1.78-6.06,1.9-17.23,2.95-24.34.8-5.45,4.18-15.47,4.07-19.36-.1-3.36-3.08-5.96-3.76-9.56-6.89-36.13,46.39-35.09,42.24-2.47-1.51,11.83-12.87,19.34-24.56,18.13-4.98-.52-7.71-4.21-12.64-4.03.07,5.31-.12,10.66,0,15.97.14,6.8.44,15.49,1.31,21.87,1.19,8.72.27,12.13,9.35,15.4-1.27-6.83,1.77-20.87.01-26.62,2.49-.31,5.68.44,8,0l1.98,9.3c3.39-4.79,11.61-6.04,15.25-8.74,3.3-2.45,3.84-7.13,5.44-9.88.54-.93,3.69-1.21,4-4.67.29-3.25-4.33-17.63-2.67-19.29,4.05-.05,7.99.87,12,1.33,2.02.23,10.3,1.74,10.66,1.34.61-.67-1.29-4.43,1.33-4,.29,1.59-1.03,4.35.86,5.4,5.68,3.13,15.48,3.43,20.47,10.57v-41.26c1.89.48,9.62.26,12.01,0v15.97c8.19-7.89,17.55-14.77,29.33-15.97.16,10.07,1.92,18.78-1.24,28.7-2.81,8.82-9.96,11.86-16.09,17.88-.02-.89.06-1.78,0-2.66h-12.01s0,18.63,0,18.63l8-12.68c.87-1.6,2.95-2.25,4-3.29.2,8.74-11.47,33.2-7.71,39.66.23.39,6.64,5.41,7.06,5.59,2.21.94,1.81-.9,2.27-1.69,1.44-2.43,8.42-14.99,8.77-16.55,1.29-5.84.86-15.09,2-21.97,1.24-7.53,3.41-14.89,4.96-22.34,2.32-.31,1.26,3.02,1.32,4.64.51,12.97-.27,26.14,1.29,38.53,1.28,10.15,3.81,20.25,6.73,30.02,2.01,0,2.48-4,3.01-5.62,2.64-8.08,5.27-16.49,6.32-24.97,1.41-.54,2.65,4.38,2.65,4.65v33.94l6.76-26.01c.45-3.42-2.82-4.65-4.09-7.26,9.28,2.56,5.64.57,8.69-6.65,2.15-5.08,5.57-12.24,8.38-16.92,1.22-2.03,4.01-7.47,6.93-7.06l-8,30.6c7.11-.26,16.02,7.13,18.39-3.6.85-3.86,1.45-14.94,1.67-19.63.26-5.53-.3-11.17-.05-16.7-11.73.99-25.05-8.1-30.71-17.93-1.15-2-5.3-11.8-5.3-13.35v-31.28c5.16,1.31,17.83,11.88,22,11.9,6.21.03,13.44-13.3,17.6-14.41,4.81-1.28,11.62,14.34,17.04,14.48,4.66.11,13.62-10.5,19.36-10.63v32.61c0,.74-3.9,9.73-4.75,11.23-5.67,9.93-16.94,17.57-28.58,17.39v23.96c6.26-2.26,11.21-8.88,18.54-7.87l2.78,54.45c.19-10.23,10.21-22.61,1.35-30.59,1.63-.71,6,1.94,6.66,1.33.6-.56,3.76-12.45,5.11-15.54,1.49-3.4,6.26-9.74,6.69-12.07.72-3.89-6.72-24.15-5.13-25.64,8.91-.95,16.84,1.36,25.33,3.38,1.36.32,3.38-.66,3.76-.41.49.32.73,2.3,1.62,2.88,3.15,2.03,6.46,3.53,9.27,6.12v-35.94c2.73,1.06,7.67.69,10.68,0v13.31c4.68-4.09,23.9-19.6,25.4-7.39,2.2,17.96-4.78,34.76-25.4,32.67l-1.33,67.22c1.43,2.07,1.09-1.09,2.67-1.99.32,11.86,8.91,16.41,20,17.3-1.95,3.2.18,6.11,0,7.99-7.78.75-24.28,4.25-21.11,15.02s14.8-3.82,17.11-4.37c-.77,2.4-3.69,11.14-.65,11.97,5.04,1.38,3.24-5.34,7.3-3.98,3.45,12.79,14.41,8.85,11.73-4.36-.45-2.19-6.16-12.24-7.71-12.95,2.71.11,3.77-2.18,5.33-3.99,6.36,17.37,30.32,19.53,29.47,4.66-.7-12.25-21.55-8.99-29.47-5.99-.25-1.01-1.39-1.46-1.33-3.99,29.02.96,27.32-30.59,5.35-14.64l-1.36-22.62c-1.94-.02-2.57,4.06-3.03,5.6-.73,2.45-1.17,8.29-2.12,9.61-1.65,2.29-6.2-2.65-6.86,6.76-.34,4.81.65,8.67,3.35,12.62l7.32-14.63c3.16,6.43-2.5,10.54-2.65,17.29-2.66-.09-6.16-2.19-9.33-1.33.11-3.43-3.33-7.43-3.61-10.15-.5-4.91,2.47-10.17-3.73-15.13l-.67,9.31c-5.57-4.54-8.03-3.03-13.32,0-.29-11,8.12-20.13,0-27.94,1.57-.5,3.77,1.16,4.73.99,1.13-.2,7.86-17.27,9.71-20.53,2.72-4.81,6.21-9.89,10.24-13.72-1.62,9.65-5.81,18.56-7.77,28.17-2.23,10.94-4.59,12.96,6.43,19.7,1.28-.02,10.77-18.9,11.21-22.05,1.93-13.61,1.93-25.49,5.86-39.42.39-1.37.33-4.03,2.25-3.71-.38,25.13-.59,50.27,6.69,74.53l4.07-4.57,7.9-24.71.03,16.62,2.64,20.64c-1.57-7.66,6.93-22.67,6.63-28.68-.13-2.5-7.42-6.45-9.34-13.18-6.11-21.45,4.11-19.27,17.38-8.72-.12-3.08.22-6.25.01-9.32,3.16.48,5.67-.64,8-2.66l2.66-1.34c1.46,2.18-3.99,10.85-3.99,12.66v20.63c2.09-5.04,17.85-8.65,18.54-9.44.52-.6.03-7.42.3-9.69.83-6.97,2.33-13.96,3.83-20.8.97-4.41,2.71-8.7,2.68-13.31,1.06-.34,1.16,1.3,1.32,1.33-.27,5.03-1.52,39.86-.01,41.27.41.39,4.09-.29,5.36,0,.92,5.25-2.63,10.46-2.67,15.3-.01,1.63,3.37,18.55,4,19.31.49.59,3.48.34,2.78-1.88l9.19-30.06,1.34,34.6c-11.23-3.73-11.27,7.65-10.67,15.98-7.71-9.76-24.56-9.18-15.26,5.27l11.27,8.02c-5.3.25-17.89-1.7-20.43,4.32-5.52,13.05,11.33,11.23,19.1,7.68.47,3.61-5.02,4.73-3.99,8.62,1.3,4.9,7.56-.28,9.32-1.97-.66,12.73,13.38,13.03,12.02,0,3.62-.47,4.69,4.98,8.64,3.99,1.82-.46,1.94-2.29,1.47-4.08-1.04-3.92-4.76-3.86-6.1-6.56,5.56,2.06,18.49,5.97,18.64-3.46.12-7.45-6.44-6.6-11.32-7.22-1.81-.23-4.08-.72-2-2.63.36-.33,6.43-1.11,9.28-3.4,9.87-7.9-.24-12.38-10.61-7.27,1.3-1.91,6.62-12.03.68-10.65-1.39,1.11-8.55,12.71-4.68,13.31-.86.91-4.6,7.53-5.33,9.32-.27-.19-2.2-1.15-2.67-1.33.54-4.63,4.53-8.24,5.24-12.72.96-6.03-1.43-10.76-1.18-15.71.47-9.09,9.29-20.82,1.27-27.46,7.62,4.02,7.99-6.62,10.85-12.47,1.35-2.76,8.89-15.55,7.81-16.82-18.28-2.8-28.03-18.57-29.34-35.95-.16-2.19.05-4.45,0-6.66-.14-6.19.09-12.44.01-18.63.74-1.01,19.07,12.06,22.02,11.96,4.68-.14,14.45-13.65,17.56-14.48,4.81-1.28,11.62,14.34,17.04,14.48,4.66.11,13.62-10.5,19.36-10.63v31.28c0,.74-2.16,2.87-1.31,4.61,7.34,2.15,13.75,6.46,19.96,10.69v-43.93c3.25,1.22,9.86.72,13.35,0v18.63s8.7-9.28,8.7-9.28c3.09-3.05,20.22-11.72,23.19-9.17.61.53-.19,3.43.11,3.81-5.64,6.32-1.69,9.67,2.67,14.63-5.22-.08-9.88,2.78-7.84,8.52.66,1.87,3.72,1.71,3.94,3.01.27,1.54-1.32,4.05-1.44,5.79-5.45,7.04-11.59,10.45-20.08,12.79.03,21.32,2.35,42.58,8.1,63.08,5.74-6.89,6.93-18.05,9.33-26.62.41-.42,2.65,1.72,2.65,2v29.95c2.4-.4,2.3-2.69,2.86-4.46.78-2.45,4.81-17.67,4.84-19.07.05-2.12-2.49-4.67-3.67-6.43,1.28-.86,4.03,1.52,5.25.66.74-.52,5.51-14.4,6.47-16.87,1.93-4.92,3.15-4.81,4.25-11.06l7.99-5.32c.56.74-.87,5.25-1.32,6.66-.55,1.73-2.93,4.23-2.56,5.86.45,1.98,8.42,5,9.9,7.45,1.1-2.49.85-6.55.66-9.31,3.18.3,3.7.65,4.69-2.59,2.19-7.14,2.12-15.52,4.64-22.7-14.66,2.54-26.97-9.45-20.51-23.83,8.77-19.51,40.27-6.6,30.52,14.51-2.24,4.86-7.78,6.91-8.45,8.86-1,2.91-.33,13.72-.22,17.75ZM552.5,365.03c-1.34,1.29,1.02,32.47,0,37.27,1.91-.17,2.33-5.92,2.51-7.48,1.12-9.88,1.83-19.95,2.82-29.79-1.29.21-4.99-.32-5.33,0ZM805.83,418.27c.37-7.74,8.43-13.03,9.37-20.59,1.59-12.82-4.49-14.12-8.04-24.66-.84-.64-2.41,2.1-2.92,3.05-2.28,4.29-9.18,29.42-8.95,33.65.18,3.26,9.44,9.6,10.54,8.55ZM1039.18,391.65l-10.66-16.73c-.42-.26-8.01.36-8.01.76v25.29c5.34-4.39,11.23-9.62,18.67-9.32-1.04,3.32.06,17.74,5.32,13.31.34-.29,2.67-8.08,2.57-8.52-.37-1.61-5.88-4.47-7.89-4.8ZM480.5,375.68c-3.8-.66-2.19.91-3.01,2.93-2.32,5.72-9.08,28.45-7,32.98,1.15,2.49,10,9.91,10,4.69v-40.6ZM487.17,375.68v23.96l4.05-21.96-4.05-2ZM84.47,418.27c.78-7.4,9.51-13.78,9.51-20.63,0-7.11-8.81-13.3-10.15-20.63-2.21,1.03-10.37,31.38-9.78,33.82.16.65,9.3,8.28,10.42,7.43ZM529.83,446.22c4.46,5.23,8.66,6.79,5.33-1.32,5.51.39,11.54.6,8.44-6.34-1.12-2.51-5.1-2.1-4.43-5.65,13.95,7.66,15.29-7.42-.01-2.68,2.47-3.9,6.8-6.03,6.77-11.33-.04-6.66-6.4-5.18-6.85-6.79-.82-2.96.76-8.98.08-12.48-3.49-.58-2.37.54-3.04,2.87-1.3,4.57-1.05,7.06.26,11.57l-9.21,6.84c4.57-6.59-4.77-11.1-4.1-15.2.23-1.43,13.02-6.41-6.57-7.42v20.63c0,.75,2.88,3.57.67,4.65-.64-2.25-7.25-3.59-7.44-4.8-.72-4.57,6.98-17.66,4.85-21.79-1.3-2.52-5.51-3.02-7.32-4.77-4.15-4-6.54-9.97-10.75-13.88.17,3.25-.7,9.94,1.17,12.54,2.29,3.17,9.08-4.47,9.39,8.3.2,8.25-4.63,12.79-5.25,17.2-.23,1.63,2.22,10.83,2.7,11.22,2.82,2.29,2.08-3.67,4.62-2.64.86.35,2.25,2.17,3.77,2.95,1.64.85,8.05,1.28,4.92,5.01-.68.81-18.43-5.98-17.41,4.63.88,9.2,15.28-.07,16.08.71.34,3.47-3.44,3.9-4.02,7.3-.69,4.06,5.05,2.21,6.16-1.95.72-2.71-.77-4.41-.59-6.06.13-1.2,1.11-1.83,1.12-1.96,1.54-.02,3.45,2.5,4,2.66-2.25,5.11-7.56,16.77.72,18.64,7.16,1.62,5.62-5.46,5.95-10.66ZM1255.18,382.33c-1.3,1.25.98,31.29,0,35.94,3.14.64,2.14-.39,2.99-1.72,1.39-2.17,8.02-12.87,8.41-14.19.61-2.09,2.66-20.57,1.93-21.36-2.4,1.33-12.84.86-13.33,1.32ZM280.48,418.27c.59-8.98,11.26-15.01,9.37-24.62-.36-1.86-12.04-12.27-13.35-11.32-2.08,12.82-14.84,31.09,3.97,35.94ZM721.84,382.33v19.97l8.02-17.97c.64-3.84-5.72-1.37-8.02-1.99ZM841.84,394.32l-17.33-1.34c-.59,12.8,3.14,25.2,6.68,37.27l10.65-35.92ZM308.5,394.3l-10.67.02c2.49,11.37,2.82,24.38,8.67,34.59,1.16-3.77,4.44-10.57,4.7-14.12.18-2.41-2.4-1.52-2.69-2.75-.74-3.07.72-17.01-.01-17.74ZM1071.17,399.64c-3.18,1.75-16.17-.98-17.26.07-.47.45-1.96,11.53-1.11,12.97.26.43,7.87,5.71,8.36,5.6,1.75-2.57,11.63-17.09,10.02-18.63ZM119.15,402.31l-14.66-1.34c-.67,10.1,3.49,19.56,5.34,29.28,2.37-1.02,3.23-6.21,4.01-8.62,2.05-6.32,3.65-12.89,5.3-19.32ZM124.49,402.3c-7.83-1.4-2.67,5.34-2.67,8.65v25.96h1.32c-.51-1.66,1.35-3.86,1.35-4.66v-29.95ZM248.49,403.64c-4.83,1.35-7.54,5.29-13.34,3.99l5.36,22.61,4.34-10.95,3.63-15.66ZM932.52,404.95c-5.43-1.41-14.41.8-10.38,7.73,1.71,2.94,12.71,5.79,9.03,14.91-3.29-1.91-7.03-7.61-11.41-4.11-4.74,3.79,1.83,8.12.86,12.6-.34,1.58-8.79,1.98-8.2,8.12.58,6.01,10.45,4.77,14.11,2.06l-2.01,7.95c2.41,1.29,6.22-3,6.64-2.65.25.21.6,4.77,2.66,6,5.89,3.52,6.79-2.6,6.7-7.33,2.9,1.09,1.68,5.34,6.65,3.98l-1.32-6.64c5.37,1.4,15.07-.94,9.46-7.47-1.9-2.21-8.27-1.3-4.61-4.63,3.1-2.83,5.79-2.21,4.48-9.19l-9.33,1.31,1.99-6.66-5.97,5.34c2.69-12.35-8.32-9.69-9.35-10.65-.47-.44.35-8.69.01-10.66ZM611.1,411.71l-10.59-5.42c-2.88,3.42,4.49,10.69,7.34,11.96,2.64,1.17,3.84-5.73,3.24-6.55ZM1036.49,432.9c.36-6.3,4.27-13.91,5.07-19.6,1.36-9.74-5.22-3.95-6.3,3.06-.52,3.39-.23,8.33-.08,11.91.07,1.61-1.01,4.95,1.31,4.63ZM707.18,411.64l-10.68-1.35c-1,1,2.83,18.6,4.67,18.61l6.01-17.26ZM1229.85,410.28v30.62l6.71-28.61c.63-3.66-4.51-1.52-6.71-2ZM289.83,434.24v-22.63c-2.73,1.74-4.14,9.69-4.12,12.67.02,2.73,1.3,8.64,4.12,9.96ZM95.14,435.57v-11.29s-2.64-11.32-2.64-11.32c.19,4.06-2.89,8.78-2.63,12.57.14,2.01,3.24,8.7,5.27,10.04ZM160.48,436.9v-9.96s-2.64-13.98-2.64-13.98l-2.68,13.87,5.32,10.07ZM555.15,435.57c-.25-5.05.42-10.24,0-15.28-.14-1.61-.5-7.12-2.64-7.33-.81,4.54,2.4,11.24-2.75,12.66l5.39,9.95ZM685.82,434.24v-8.64s-2.64-12.65-2.64-12.65c-2.31,7.62-5.11,15.58,2.64,21.29ZM843.17,412.95v21.3l5.38-19.3-5.38-2ZM1072.51,432.91v-19.97c-4.91,4.51-7.66,16.63,0,19.97ZM1137.84,412.95c-3.84-.64-2.2.84-2.84,3.08-.99,3.45-1.5,7.19-2.09,10.73l6.26,11.47-1.33-25.28ZM1268.5,434.24v-9.97s-2.64-11.32-2.64-11.32c-1.19,8.1-6.1,15.47,2.64,21.29ZM56.49,415.61v25.29l5.38-23.29-5.38-2ZM1187.18,444.89l-5.33-1.33c.35-.33,2.41.15,3.87-2.08,12.33-18.75-16.71-31.19-9.22-1.92-2.52-.62-1.71-3.81-5.26-4.77-2.24-.6-4.49.93-6.72.79,1.34,7.25,7.9,10.28,14.66,10.64-.77.82-1.09,2.33-2.67,2.66-5.92-3.68-24.23-1.56-19.37,7.99,3.3,6.49,18.02.31,20.7-5.33,1.18.81,4.98,3.86,5.33,3.99-3.35,4.46-7.7,20.63.74,21.35,7.66.66,5.66-8.72,5.93-13.37,5.67,6.77,11.49,8.52,5.33-1.32,22.29,4.37,8.63-15.24-6.67-10.66-.26-.94-1.33-5.05-1.33-5.32,7.36.48,14.93.08,19.26-6.72,5.93-9.33-2.05-9.78-3.21-12.95-.96-2.62.26-9.26-2.7-10.94.28,13-12.64,16.83-13.35,29.27ZM815.16,431.58c-.43-4.27,1.66-11.9-2.64-14.63-1.51,5.12-3.45,11.88,2.64,14.63ZM489.83,419.61c-3.24-4.26-4.15,12.31-.65,13.3l.65-13.3ZM1027.17,419.61h-6.66c.66,13.25,4.34,11.89,6.66,0ZM75.13,422.27c-3.73-3.17-2.84,8.96-2.63,11.29,1.58,17.43,7.08,3.8,6.63-2.57-.06-.9-3.64-8.41-4.01-8.72ZM141.81,442.23c.44-.45,2.6-11.43,2.41-12.34-.4-1.92-4.27-6.66-6.39-7.63.29,5.95-.97,12.4,1.17,18.12.51,1.37.78,3.95,2.8,1.85ZM207.15,442.24c.37-.43,2.38-10.55,2.33-11.11-.23-2.5-3.71-7.83-6.31-8.86.23,5.02-.47,10.19.12,15.2.12,1.02,1.57,7.42,3.86,4.77ZM272.49,442.24c2.02-2.33,2.31-18.46-3.98-19.97.23,5.02-.47,10.19.12,15.2.12,1.03,1.56,7.41,3.86,4.77ZM600.48,422.27c-.16-.14-2.8-.49-2.65.66-.19,5.75.34,11.62,1.39,17.27,1.37,7.39,5.46-6.54,5.27-9.22-.06-.9-3.64-8.41-4.01-8.72ZM665.82,422.27c-1.93-1.92-2.4.13-2.65,1.96-.32,2.46.43,16.91,1.34,18,2.08,2.5,2.29-.82,2.78-1.88.64-1.37,2.48-6.99,2.54-8.26.04-.98-3.64-9.45-4.01-9.83ZM797.83,442.24c.37-.43,2.38-10.55,2.33-11.11-.23-2.5-3.71-7.83-6.31-8.86.23,5.02-.47,10.19.12,15.2.12,1.02,1.57,7.42,3.86,4.77ZM989.84,442.22c1.67-8.7,4.05-13.42-3.98-19.96,1.31,5.47-3.57,18.82,3.98,19.96ZM1051.18,442.23c8.31-2.38,6.01-15.76,0-19.97v19.97ZM11.14,442.23c2.82-2.88,4.41-19.04-3.97-18.63-.6.68,1.01,14.27,1.36,16.62.27,1.81.56,4.1,2.61,2.01ZM424.49,423.6c-9.84.1-2.53,7.8,1.33,11.98l-1.33-11.98ZM1116.51,442.23c7.17-1.82,7-15.87,0-18.64v18.64ZM860.51,458.2c7.03-.32,15.86-4.66,16.05-12.64.31-12.83-13.22-3.5-14.71-4.68,2.5-4.06,1.15-10.38-2.65-13.29-.44,2.64.55,6.19.08,8.58-.3,1.52-3.4.26-3.94.81-1.3,1.32.71,8.35,1.2,10.56l2.67-5.32c5.6,2.27-2.22,9.02-.01,14.64-.71-.2-3.13-.14-4,0,1.22-19.42-27.25-19.48-12-1.34-16.71.57-8.57,16.26,5.33,10.68-2.75,4.8-16.19,1.94-12.66,9.31l5.98-2.67,1.25,7.42c6.14,2.62,7.81-3.43,10.76-7.42.33,4.43-1.45,13.76,4.71,14.71,8.46,1.31,8.2-7.54,5.96-13.37,4.86,1.05,5.14,5.15,11.3,4.02,9.63-1.77-1.73-10.85-4.63-13.35,16.5.78,18.09-9.3,8.72-9.4-1.37-.02-13.55,3.56-14.05,4.1-1.81,1.97,3.74,3.94,5.33,5.31-3.25-.15-6.16-.87-9.33-1.33-.45-1.77-.03-3.44-1.33-5.32ZM1251.18,432.91c-.27-.26-2.91.16-3.99,0v9.32c4.24,1.81,4.47-8.85,3.99-9.31ZM108.49,459.53c-1.01.13-2.61,1.42-4,1.33-5.81-13.7-33.46.7-9.33,6.67-11.71,13.18,4.07,10.8,5.34,11.97.43.4-.31,6.34,0,7.98l4.01-6.64c2.5.29,1.85,4.41,4.89,5.19,6.41,1.65,7.66-9.64,3.1-13.17l9.71,9.64c5.82,2.83,9.33-2.47,6.65-8.01-.79-1.63-6.3-5.44-8.35-6.97,2.76-.08,5.29,1.18,7.35,1.1,13.72-.6,7.4-16.37-8.68-8.42-7.87,3.89-2.57,4.41,1.34,7.32-2.22.07-4.45-.1-6.67,0,.08-3.02.81-6.91-2.67-7.99,20.6-21.05-14.14-32.26-7.37-7.94.76,2.74,3.28,5.46,4.71,7.94ZM101.82,452.87c1.36-3.04-3.96-10.65-6.65-7.97-1.72,1.71,3.56,8.87,6.65,7.97ZM116.5,458.2c6.58-.31,15.99-4.1,14.07-12.02-5.56-6.49-15.61,10.54-14.07,12.02ZM781.84,451.55c2.98-.12,8.91.48,11.22-1.21,1.14-.83,1.13-3.75.79-4.1-.84-.86-15.64.4-16.01,3.97,2.69-1.11,3.36.99,4,1.34-4.42.18-8.91-.14-13.33.01l2.66,5.3c-1.77.67-5.88-1.88-6.65-1.33-3.22,2.28-2.27,25.88,9.69,22.4,7.21-2.1,4.59-10.63,2.95-15.7,3.97,2.15,13.25,7,16.08,1.28,3.11-6.27-7.36-9.71-11.4-11.96ZM1212.51,451.54c.75-.71.14-4.37-2.2-5.11-3.57-1.13-7.66.26-11.12,1.14.85,3.23,12.21,5.01,13.32,3.97ZM333.82,454.2c2.86-3.79-10.13-6.28-11.98-1.97-2.62,6.1,11.48,2.65,11.98,1.97ZM1171.19,466.18c3.02,3.13,8.36-6.18,6.65-9.31-3.32.21-9.11,6.76-6.65,9.31ZM1240.52,471.51c10.89-7.24-8.35-27.44-6.68-3.99-6.38-7.19-12.79,3.05-6.35,5.78,3.13,1.33,7.03.86,10.37.88-.09.72-.14,2.04,0,2.66-7.64.2-15.04-2.7-13.33,7.98l9.33-1.32c-10.09,18.67,11.23,13.09,6.67-2.67.09-.7.65-1.3,1.33-1.33-4.5,16.2,15.03,22.69,8,5.32,1.42,1.17,9.49,3.81,10.66,2.66.59-4.58-.59-6.55-4.96-7.68-4.3-1.11-8.61-1.36-7.03,3.69-1.41-2.02-2.86-3.37-5.33-3.99.01-1.47,1-2.76,1.33-3.99,32.24,6.88,11-26.54,0-1.33l-4-2.66ZM367.03,482.02c5.99-3.77-7.66-16.23-9.19-14.5-1.07,4.3,2.91,18.45,9.19,14.5Z"/>
      <path class="st0" d="M1072.51,317.11c-4.98-1.77-14.18-13.86-13.35-19.97-10.74,3.8-22.84,5.28-30.65-4.66-8.1-10.3-4.86-17.59-1.33-28.6-25.56-2.81-24.43-40.38,1.32-42.61-.39-3.31-2.95-5.15-4.07-8.56-6.72-20.46,17.2-36.6,34.72-24.71,5.68-25.49,40.47-24.79,44.04,1.33,23.24-16.21,48.53,8.57,31.99,31.93,29.81.24,30.12,40.75,1.34,43.95,11.03,18.15-2.06,37.89-23.26,34.5-3.89-.62-6.26-3.71-10.07-3.9,0,10.47-7.24,19.16-17.34,21.3-3.56.75-9.96,1.2-13.33,0ZM1073.5,205.62c-43.06,6.87-36.93,79.58,15.35,71.24,43.44-6.93,35.98-79.43-15.35-71.24Z"/>
      <path class="st0" d="M539.17,317.11c-.64-.24-9.15-8.17-9.94-9.38-2.02-3.11-3.17-6.9-3.41-10.59-10.74,3.8-22.84,5.28-30.65-4.66-8.1-10.3-4.86-17.59-1.33-28.6-25.47-3.55-24.18-39.76,1.32-42.61.35-2.72-2.35-3.92-3.33-6.65-7.57-21.18,14.49-38.69,33.34-26.66,3.33-4.43,3.34-9.37,7.97-13.29,13.98-11.86,34.97-3.33,36.7,14.66,23.09-16.21,48.9,8.61,31.99,31.93,29.72.32,30.49,40.87,1.34,43.95,14.17,23.27-12.11,45.72-33.32,29.27.72,11.53-6.32,20.35-17.35,22.63-3.49.72-10.09,1.22-13.33,0ZM540.15,205.61c-43.42,7.39-36.55,79.37,15.36,71.24,43.85-6.86,35.73-79.94-15.36-71.24Z"/>
      <path class="st0" d="M124.49,326.43c-4.39-1.13-13.01-13.25-12.01-18.63-9.3,7.12-22.71,4.91-29.32-4.66-5.44-7.88-2.13-16.23,0-24.62-23.67-2.49-22.55-37.3,1.33-38.62-13.18-20.32,6.72-42.3,27.98-29.27,4.43-23.12,36.39-23.3,40.03,0,3.08-.15,4.72-2.64,7.89-3.42,15.49-3.83,28.7,9.34,24.86,24.82-.79,3.18-3.28,4.81-3.42,7.88,25.35,2.35,24.9,36.43,0,39.96,13.32,20.78-9.02,41.26-29.32,27.94.02,8.78-7.16,17.68-16.01,18.64-2.4.26-10.12.48-12,0ZM128.18,225.6c-42.24,5.04-35.86,68.1,4.91,66.27,45.34-2.04,39.66-71.59-4.91-66.27Z"/>
      <path class="st0" d="M308.5,327.76c-3.92-1.54-10.81-9.91-10.68-14.65-15.43,7.19-30.17-1.32-27.7-19.01.25-1.76,2.68-4.04,2.36-5.53-.4-1.8-5.94-2.69-7.93-4.12-14.01-10.05-8.89-29.49,7.95-31.24-9.63-18.61,6.83-36.62,25.31-25.28,4.13-19.65,31.12-19.81,34.71,0,18.35-11.38,36.65,6.91,25.32,25.28,19.3,2.57,20.17,31.86,0,33.3,3.33,8.87,6.25,13.23.01,21.96s-16.63,9.33-25.33,3.32c-.05,8.45-5.15,14.1-13.35,15.97-3.01.69-7.95,1.06-10.67,0ZM308.15,241.55c-33.71,5.72-27.89,64.1,15.09,55,30.61-6.48,25.46-61.88-15.09-55Z"/>
      <path class="st0" d="M841.84,327.76c-3.92-1.54-10.81-9.91-10.68-14.65-15.71,7.09-29.88-1.11-27.68-18.99.23-1.89,2.26-5.05,2.2-5.67-.15-1.48-8.58-3.59-11.08-6.06-10.1-9.99-3.38-28.86,11.23-29.19-9.63-18.61,6.83-36.62,25.31-25.28,4.35-19.62,30.56-19.92,34.71,0,18.19-11.74,36.43,7.08,25.31,25.28,19.45,2.66,19.9,31.59,0,33.3,3.33,8.87,6.25,13.23.01,21.96-6.4,8.96-16.63,9.33-25.33,3.32.15,8.34-5.43,14.03-13.35,15.97-2.96.73-8.01,1.04-10.67,0ZM841.49,241.55c-33.82,5.74-28.15,64.15,15.09,55,30.61-6.48,25.46-61.88-15.09-55Z"/>
      <path class="st0" d="M931.18,371.68c-.54-2.11.4-5.59-.01-7.98-2.91.99-2.81,7.17-5.31,8.7-7.96,4.89-11.05-6.94-6.69-12.69-2.33,1.2-2.99,4.39-6.35,5.05-12.02,2.35-4.97-11.16-5.64-11.7-5.91,1.47-12.65-1.49-8.69-8.03,1.37-2.26,5.78-1.37,6.02-3.95-14.33-.06-11.91-12.83,1.35-12.66-12.07-3.53-10.73-17.17,2.65-12.65.43-2.66-2.29-3.51-2.69-6.06-.57-3.57,1.82-7.51,5.79-6.95,3.43.49,4.98,4.91,7.56,6.35-4.12-7.22.23-19.36,8.09-11.38,2.41,2.45,1.36,6.41,3.91,7.39-3.09-6.63,3.94-17.61,8.76-10.72,1.9,2.71-1.28,9.17,1.9,10.72,2.18-14.65,18.91-12.01,12.67,2.65,8.53-10.64,18.43-1.55,8.68,8,6.29-2.01,15.49-.48,11.34,8.01-1.54,3.16-6.38,2.53-7.33,5.3l10.66,2.68c.05,2.2-.17,4.47,0,6.66l-9.33,2.68c.24,2.58,4.65,1.69,6.02,3.95,3.95,6.53-2.77,9.49-8.69,8.03,4.25,12.34-3.7,15.91-11.99,6.65.76,5.48,3.96,12.02-4.01,13.31-.08-5.75.07-11.55-.01-17.3l-5.32,13.3c-.12-.76-2.47-6.65-3.99-6.65,1.09,4.59-1.1,9.32-1.35,13.3-2.83.96-7.33-1.35-8-3.99ZM932.14,317.42c-19.42,3.96-15.69,37.66,8.73,32.66,19.84-4.07,15-37.49-8.73-32.66ZM909.18,351.72v1.33c.87-.44.87-.89,0-1.33ZM963.84,351.72v1.33c.87-.44.87-.89,0-1.33Z"/>
      <path class="st0" d="M1117.85,321.1c.25.32,6.7,1.1,7.99,1.32.77-.72-7.4-10.54,1.32-12.79,4.35-1.12,6.52,4.31,9.34,6.13-4.38-6.6-1.27-18.29,7.45-12.06,3.08,2.2,1.83,6.82,4.55,8.07-2.96-16.81,12.33-16.81,9.36,0,2.92-.98,2.76-7.12,5.3-8.65,8.38-5.05,11.42,4.32,8.67,11.29,5.05-7.42,15.4-6.31,11.92,3.97-1.08,3.2-3.58,3.08-4.57,5.36,13.85-6.89,19.72,5.97,5.31,11.33,13.27-.17,15.68,12.6,1.35,12.66.23,2.58,4.65,1.69,6.02,3.95,3.96,6.54-2.79,9.49-8.69,8.03,4.25,12.36-3.73,15.9-11.99,6.65,3.01,6,.43,17.93-7.45,12.08-2.88-2.14-2.87-7.85-5.89-9.41,1.09,4.59-1.1,9.32-1.35,13.3h-6.67c-.37-4.15-2.35-8.63-1.35-13.3l-3.99,6.65c-.11-3.76.15-7.56,0-11.33-.06-1.61,1-4.95-1.32-4.63-1.04,6.38-3.63,12.47-5.35,18.63-5.57.35-2.84-6.42-2.67-9.31-.6-.67-7.34,3.03-7.99,3.99h-1.33c-3.55-4.92-3.15-7.36-1.34-13.3-6.74.24-9.87,1.1-9.33-6.66.12-1.74,1.7-4.25,1.44-5.79-.23-1.3-3.28-1.14-3.94-3.01-2.04-5.74,2.62-8.59,7.84-8.52-4.35-4.96-8.31-8.31-2.67-14.63ZM1149.48,324.07c-17.31,3.55-16.59,30.62,1.16,32.85,27.58,3.47,25.6-38.34-1.16-32.85ZM1126.51,358.37v1.33c.87-.44.87-.89,0-1.33ZM1181.18,358.37v1.33c.87-.44.87-.89,0-1.33ZM1135.85,366.36v1.33c.87-.44.87-.89,0-1.33Z"/>
      <path class="st0" d="M364.5,350.39c.14-1.77-.4-3.63.65-5.3,1.52-2.4,5.71-1.41,6.01-4.01-14.33-.06-11.91-12.83,1.35-12.66-12.12-3.57-10.68-17.17,2.65-12.65.8-.76-7.44-10.44,1.31-12.76,5.16-1.37,6.35,3.95,9.35,6.1-6.05-15.77,7.59-19.11,11.34-3.97-1.32-16.82,12.6-16.91,10.01-.02,2.58-.79,3.89-8.04,5.59-9.02,6.5-3.75,13.77,4.25,7.73,10.34,11.39-5.2,18.72-2.06,9.33,9.32,6.29-2.01,15.49-.48,11.34,8.01-1.54,3.16-6.38,2.53-7.33,5.3l10.66,2.68c.05,2.2-.16,4.47,0,6.66l-9.33,2.68c.24,2.58,4.65,1.69,6.02,3.95,4.22,6.96-3.05,9.01-8.69,8.02-.15-.03-.25-1.67-1.32-1.33.03,4.61-1.71,8.9-2.68,13.31l-7.99-5.32c-.65.85,5.07,14.29-4.62,13.38-5.33-.5-5.15-8.26-8.72-10.71v10.64c-2.34,2.02-4.85,3.14-8.01,2.66-.24-3.59-2.37-7.81-1.35-11.97-4.1,2.92-1.88,9.04-8.64,9.11-8.24.08-3.61-7.89-3.37-13.11-8.55,9.25-15.83,5.88-11.99-6.65l-9.33-1.34v-1.33ZM398.8,317.42c-19.29,3.93-15.61,37.65,8.73,32.66,20.12-4.13,15.3-37.55-8.73-32.66ZM375.83,351.72v1.33c.87-.44.87-.89,0-1.33Z"/>
      <path class="st0" d="M584.5,321.1c.25.32,6.7,1.1,7.99,1.32.8-.76-7.44-10.44,1.31-12.76,5.16-1.37,6.35,3.95,9.35,6.1-3.19-6.48-1.51-18.45,7.45-12.06,3.08,2.2,1.83,6.82,4.55,8.07-2.97-16.81,12.33-16.8,9.36,0,4.11-2.97,2.03-9.06,8.64-9.45,8.41-.49,7.43,6.19,5.33,12.09,8.52-10.63,18.44-1.56,8.68,8,13.92-4.01,17.15,8.04,3.99,12.66,13.27-.17,15.68,12.6,1.35,12.66.24,2.58,4.65,1.69,6.02,3.95,3.96,6.53-2.78,9.49-8.69,8.03,4.88,13.22-3.39,15.65-11.99,6.65,4.06,11.12-2.71,19.33-10.68,7.99-.11-4.03-.79-14.84.22-17.75.67-1.95,6.21-4,8.45-8.86,9.75-21.11-21.75-34.02-30.52-14.51-6.46,14.38,5.85,26.37,20.51,23.83-2.52,7.17-2.45,15.56-4.64,22.7-.99,3.24-1.51,2.89-4.69,2.59-.28-4.04-2.42-8.69-1.35-13.3-3.23,1.44-1.42,9.66-6.65,9.31.45-1.41,1.88-5.92,1.32-6.66l-7.99,5.32c.56-3.16-.3-7.19,1.32-10.64-2.36,1.3-2.94,4.25-6.35,5.05-7.65,1.78-7.93-6.34-5.65-11.7-6.74.24-9.87,1.1-9.33-6.66.12-1.74,1.7-4.25,1.44-5.79-.23-1.3-3.28-1.14-3.94-3.01-2.04-5.74,2.62-8.59,7.84-8.52-4.35-4.96-8.31-8.31-2.67-14.63ZM593.17,358.37v1.33c.87-.44.87-.89,0-1.33ZM648.5,358.39c-1.87-.96-3.56.84-2.65,1.3,1.87.96,3.56-.84,2.65-1.3Z"/>
      <path class="st0" d="M19.16,371.68c-.01-2.52-1.28-4.86-1.34-7.31s1.88-5.65,1.45-7.82c-.23-1.17-15.23-4.64-9.54-18.91,2.93-7.34,10.02-6.44,10.76-7.24.97-1.04-7.62-10.31,1.93-18.7,8.76-7.7,12.33-.97,16.11-1.39,1.3-.15,2.93-8.71,9.57-10.23,7.73-1.76,11.88-.32,16.22,5.91.92,1.32,1.36,4.3,1.55,4.44.82.63,8.61-4.93,16.44.19,9.22,6.04,2.55,18.65,3.55,19.73.2.21,3.21.32,5.37,1.96,7.9,5.97,6.57,15.69-.08,22.06-4-.46-7.95-1.38-12-1.33-1.66,1.66,2.96,16.04,2.67,19.29-.31,3.46-3.46,3.74-4,4.67-2.6,1.18-10.84-2.02-11.89-1.25-2.05,1.51-1.04,8.71-10.78,10.57-2.32.44-5.51-.31-8,0-.34-1.11-3.48-2.48-4.63-4.03-1.87-2.51-1.86-6.81-6.04-6.62-.11-5.31.07-10.66,0-15.97,4.93-.18,7.66,3.51,12.64,4.03,11.69,1.22,23.06-6.29,24.56-18.13,4.15-32.62-49.13-33.66-42.24,2.47.69,3.59,3.66,6.2,3.76,9.56.12,3.89-3.27,13.92-4.07,19.36-5,1.01-7.65-2.92-12-3.99.05-.43,0-.9,0-1.33Z"/>
      <path class="st0" d="M449.83,459.53c.47.19,2.4,1.14,2.67,1.33,1.67,1.19,3.27,1.24,2.68,3.31-.17.92-1.69,1.15-2.68,2.01-.89.78-2.28,1.11-2.67,2.66-4.02-1.48-9.92,2.88-6.5-6.87.44-1.25,2.49-1.82,2.78-3.47,1.42-.99,2.62.58,3.72,1.02Z"/>
      <path class="st0" d="M777.84,399.64v31.28c0,.41-5.37,5.95-6.67,4.65,5.49-6.81-.99-12.93-.96-17.7.01-1.97,3.64-14.31,4.64-16.54.82-1.85.17-2.07,2.99-1.68Z"/>
      <path class="st0" d="M364.5,351.72c-2.27-.49-.01-1.2,0-1.33v1.33Z"/>
      <path class="st0" d="M1073.5,205.62c51.33-8.19,58.79,64.31,15.35,71.24-52.29,8.34-58.41-64.37-15.35-71.24Z"/>
      <path class="st0" d="M540.15,205.61c51.09-8.69,59.22,64.38,15.36,71.24-51.91,8.12-58.78-63.86-15.36-71.24Z"/>
      <path class="st0" d="M128.18,225.6c44.57-5.32,50.25,64.23,4.91,66.27-40.78,1.83-47.16-61.22-4.91-66.27Z"/>
      <path class="st0" d="M308.15,241.55c40.54-6.88,45.7,48.52,15.09,55-42.98,9.1-48.8-49.27-15.09-55Z"/>
      <path class="st0" d="M841.49,241.55c40.54-6.88,45.7,48.52,15.09,55-43.24,9.16-48.91-49.26-15.09-55Z"/>
      <path class="st0" d="M932.14,317.42c23.73-4.83,28.57,28.59,8.73,32.66-24.42,5.01-28.15-28.7-8.73-32.66Z"/>
      <path class="st0" d="M909.18,351.72c.87.44.87.89,0,1.33v-1.33Z"/>
      <path class="st0" d="M963.84,351.72c.87.44.87.89,0,1.33v-1.33Z"/>
      <path class="st0" d="M1149.48,324.07c26.76-5.49,28.74,36.32,1.16,32.85-17.75-2.23-18.47-29.3-1.16-32.85Z"/>
      <path class="st0" d="M1126.51,358.37c.87.44.87.89,0,1.33v-1.33Z"/>
      <path class="st0" d="M1181.18,358.37c.87.44.87.89,0,1.33v-1.33Z"/>
      <path class="st0" d="M1135.85,366.36c.87.44.87.89,0,1.33v-1.33Z"/>
      <path class="st0" d="M398.8,317.42c24.03-4.89,28.85,28.53,8.73,32.66-24.34,4.99-28.02-28.73-8.73-32.66Z"/>
      <path class="st0" d="M375.83,351.72c.87.44.87.89,0,1.33v-1.33Z"/>
      <path class="st0" d="M648.5,358.39c.9.46-.78,2.26-2.65,1.3-.9-.46.78-2.26,2.65-1.3Z"/>
      <path class="st0" d="M593.17,358.37c.87.44.87.89,0,1.33v-1.33Z"/>
      <path class="st0" d="M452.5,466.19c4.32,1.71,4.9,8.01-.05,6.04-1.26-.5-2.3-3.26-2.61-3.37.38-1.55,1.77-1.88,2.67-2.66Z"/>
      <path class="st0" d="M521.17,403.63c.87.44.87.89,0,1.33v-1.33Z"/>
      <path class="st0" d="M932.5,450.21c-.46.9-2.26-.78-1.31-2.65.46-.9,2.26.78,1.31,2.65Z"/>
      <path class="st0" d="M108.49,468.85c-1.88,3.7-1.17,10.97-6.67,9.3,1.74-3.6,3.95-6.34,4-10.64,1-.13,2.29,1.29,2.67,1.33Z"/>
      <path class="st0" d="M853.84,464.86c-5.35.42-1.4-2.09-1.33-2.66.25.86,1.23,1.93,1.33,2.66Z"/>
      <path class="st0" d="M845.83,458.2c-.46.9-2.26-.78-1.31-2.65.46-.9,2.26.78,1.31,2.65Z"/>
      <path class="st0" d="M861.84,464.86c.34,2.23,1.66,4.29,1.32,6.66l-3.99-5.32c.78-.43,1.43-1.43,2.67-1.33Z"/>
    </g>
  </g>
</svg>