<?xml version="1.0" encoding="UTF-8"?>
<svg id="Layer_1" xmlns="http://www.w3.org/2000/svg" version="1.1" viewBox="0 0 800 800">
  <!-- Generator: Adobe Illustrator 29.1.0, SVG Export Plug-In . SVG Version: 2.1.0 Build 142)  -->
  <defs>
    <style>
      .st0 {
        fill: #fff;
      }
    </style>
  </defs>
  <path class="st0" d="M66.7,400c0,142.3,89.2,263.8,214.7,311.6-3.1-26-6.3-68.9.7-99.1,6-25.9,38.9-164.9,38.9-164.9,0,0-9.9-19.9-9.9-49.3,0-46.1,26.7-80.6,60-80.6s42,21.2,42,46.7-18.1,71-27.5,110.5c-7.8,33,16.6,60,49.1,60,59,0,104.3-62.2,104.3-152s-57.1-135-138.6-135-149.8,70.8-149.8,144,11,59.1,24.7,75.7c1.2,1.3,2,2.8,2.4,4.5.4,1.7.4,3.4,0,5.1-2.5,10.5-8.1,33-9.2,37.6-1.5,6.1-4.8,7.4-11.1,4.4-41.4-19.3-67.3-79.9-67.3-128.5,0-104.7,76-200.8,219.2-200.8s204.6,82,204.6,191.6-72.1,206.4-172.2,206.4-65.2-17.5-76.1-38.1c0,0-16.6,63.4-20.7,78.9-7.8,30.1-29.6,68.2-43,89.9,31.1,9.6,64,14.7,98.2,14.7,184.1,0,333.3-149.3,333.3-333.3S584.1,66.7,400,66.7,66.7,215.9,66.7,400Z"/>
</svg>