<?xml version="1.0" encoding="UTF-8"?>
<svg id="Layer_1" xmlns="http://www.w3.org/2000/svg" version="1.1" viewBox="0 0 800 800">
  <!-- Generator: Adobe Illustrator 29.1.0, SVG Export Plug-In . SVG Version: 2.1.0 Build 142)  -->
  <defs>
    <style>
      .st0 {
        fill: #fff;
      }
    </style>
  </defs>
  <path class="st0" d="M511.1,125h-222.3c-90.5,0-163.8,73.4-163.8,163.8v222.3c0,90.5,73.4,163.8,163.8,163.9h222.3c90.5,0,163.8-73.4,163.9-163.9v-222.3c0-90.5-73.4-163.8-163.9-163.8ZM619.7,511.1c0,59.9-48.6,108.5-108.5,108.5h-222.3c-59.9,0-108.5-48.6-108.5-108.5h0v-222.3c0-59.9,48.6-108.5,108.5-108.5h222.3c59.9,0,108.5,48.6,108.5,108.5v222.3Z"/>
  <path class="st0" d="M400,257.8c-78.5,0-142.2,63.8-142.2,142.2s63.8,142.2,142.2,142.2,142.2-63.8,142.2-142.2-63.7-142.2-142.2-142.2ZM400,486.9c-48,0-86.9-38.9-86.9-86.8,0-48,38.9-86.9,86.8-86.9h0c48,0,86.9,38.9,86.9,86.9,0,48-38.9,86.9-86.8,86.9ZM542.5,224.8c18.8,0,34.1,15.3,34,34.1,0,18.8-15.3,34.1-34.1,34-18.8,0-34-15.3-34-34,0-18.8,12.8-34.1,34.1-34.1Z"/>
</svg>